name processed_emg_signals						
nRows=129						
nColumns=7						
 						
endheader						
time	RGLTMED	RRF	RADDLONG	RST	RTA	RGM
0.642	0.029260809	0.037674973	0.096711602	0.045651201	0.275447962	0.028874529
0.643	0.029459361	0.037645878	0.096825763	0.044500498	0.279132813	0.028512795
0.644	0.029657297	0.037610485	0.096931146	0.043371645	0.28277931	0.028063732
0.645	0.029854454	0.037568714	0.097027574	0.042264802	0.286385819	0.027529589
0.646	0.03005067	0.037520493	0.097114875	0.041180118	0.289950746	0.026912605
0.647	0.030245788	0.037465755	0.097192886	0.040117724	0.293472542	0.026215009
0.648	0.030439647	0.037404439	0.097261447	0.03907774	0.296949701	0.025439018
0.649	0.030632092	0.037336494	0.097320409	0.03806027	0.300380761	0.024586836
0.65	0.030822967	0.037261875	0.097369628	0.037065405	0.303764309	0.023660654
0.651	0.03101212	0.037180545	0.097408971	0.036093223	0.307098975	0.022662644
0.652	0.0311994	0.037092476	0.097438312	0.035143785	0.310383439	0.021594962
0.653	0.031384658	0.036997649	0.097457535	0.034217141	0.31361643	0.020459749
0.654	0.031567749	0.036896053	0.097466532	0.033313327	0.316796724	0.019259124
0.655	0.031748528	0.036787688	0.097465209	0.032432365	0.31992315	0.017995188
0.656	0.031926857	0.036672562	0.097453478	0.031574262	0.322994585	0.01667002
0.657	0.032102596	0.036550694	0.097431265	0.030739014	0.32600996	0.015285678
0.658	0.032275611	0.036422112	0.097398507	0.029926602	0.328968258	0.013844201
0.659	0.032445771	0.036286855	0.097355152	0.029136995	0.331868514	0.012347603
0.66	0.032612949	0.036144969	0.097301161	0.028370147	0.334709818	0.010797876
0.661	0.032777018	0.035996514	0.097236507	0.027626003	0.337491313	0.009196988
0.662	0.032937859	0.035841558	0.097161176	0.026904491	0.340212198	0.007546885
0.663	0.033095353	0.035680178	0.097075168	0.026205529	0.342871727	0.005849488
0.664	0.033249389	0.035512462	0.096978495	0.025529021	0.345469211	0.004106696
0.665	0.033399854	0.035338507	0.096871184	0.024874861	0.348004015	0.002320382
0.666	0.033546645	0.03515842	0.096753276	0.024242929	0.350475563	0.000492396
0.667	0.03368966	0.034972316	0.096624825	0.023633095	0.352883336	0.001375436
0.668	0.033828801	0.034780322	0.0964859	0.023045215	0.355226872	0.003281312
0.669	0.033963974	0.034582569	0.096336585	0.022479137	0.357505766	0.005223454
0.67	0.034095092	0.0343792	0.096176979	0.021934695	0.359719671	0.007200109
0.671	0.034222071	0.034170366	0.096007194	0.021411715	0.3618683	0.009209545
0.672	0.034344829	0.033956225	0.095827358	0.020910009	0.363951423	0.011250054
0.673	0.034463292	0.033736941	0.095637614	0.020429382	0.365968867	0.013319952
0.674	0.034577389	0.033512689	0.095438119	0.019969628	0.36792052	0.015417578
0.675	0.034687055	0.033283647	0.095229046	0.01953053	0.369806326	0.01754129
0.676	0.034792229	0.033050001	0.095010581	0.019111862	0.371626287	0.019689471
0.677	0.034892853	0.032811944	0.094782926	0.018713391	0.373380465	0.021860525
0.678	0.034988877	0.032569673	0.094546296	0.018334873	0.375068978	0.024052875
0.679	0.035080254	0.032323391	0.094300923	0.017976055	0.376692002	0.026264968
0.68	0.035166943	0.032073305	0.094047049	0.017636677	0.378249768	0.028495268
0.681	0.035248907	0.031819628	0.093784934	0.017316472	0.379742567	0.030742259
0.682	0.035326115	0.031562575	0.093514849	0.017015162	0.381170744	0.033004446
0.683	0.035398539	0.031302367	0.093237079	0.016732465	0.382534698	0.035280351
0.684	0.03546616	0.031039225	0.092951921	0.016468089	0.383834884	0.037568513
0.685	0.03552896	0.030773375	0.092659687	0.016221738	0.385071813	0.039867492
0.686	0.035586929	0.030505044	0.092360697	0.015993108	0.386246046	0.042175861
0.687	0.03564006	0.030234462	0.092055287	0.015781888	0.387358197	0.044492214
0.688	0.035688353	0.02996186	0.091743801	0.015587763	0.388408932	0.046815156
0.689	0.035731812	0.029687469	0.091426596	0.015410412	0.389398968	0.049143313
0.69	0.035770447	0.029411521	0.091104036	0.015249506	0.39032907	0.051475322
0.691	0.035804271	0.029134248	0.090776499	0.015104715	0.391200052	0.053809837
0.692	0.035833306	0.028855883	0.090444368	0.014975701	0.392012773	0.056145525
0.693	0.035857575	0.028576656	0.090108037	0.014862124	0.392768141	0.05848107
0.694	0.035877108	0.028296798	0.089767906	0.014763639	0.393467104	0.060815166
0.695	0.03589194	0.028016538	0.089424385	0.014679895	0.394110655	0.063146523
0.696	0.035902111	0.027736102	0.089077886	0.014610541	0.394699829	0.065473863
0.697	0.035907667	0.027455714	0.088728831	0.01455522	0.395235698	0.067795922
0.698	0.035908656	0.027175597	0.088377645	0.014513573	0.395719372	0.070111447
0.699	0.035905135	0.026895969	0.088024758	0.014485238	0.396151999	0.0724192
0.7	0.035897161	0.026617046	0.087670604	0.014469851	0.396534758	0.074717954
0.701	0.035884801	0.02633904	0.08731562	0.014467043	0.396868862	0.077006496
0.702	0.035868122	0.026062159	0.086960245	0.014476448	0.397155553	0.079283623
0.703	0.035847201	0.025786606	0.086604919	0.014497693	0.397396103	0.081548149
0.704	0.035822114	0.025512582	0.086250084	0.014530406	0.397591806	0.083798896
0.705	0.035792945	0.02524028	0.085896182	0.014574215	0.397743984	0.086034703
0.706	0.035759784	0.02496989	0.085543654	0.014628744	0.397853977	0.08825442
0.707	0.035722721	0.024701595	0.085192939	0.014693617	0.397923148	0.090456911
0.708	0.035681854	0.024435575	0.084844474	0.014768459	0.397952875	0.092641054
0.709	0.035637285	0.024172002	0.084498694	0.014852893	0.39794455	0.094805741
0.71	0.035589119	0.023911043	0.084156029	0.014946542	0.397899581	0.096949878
0.711	0.035537466	0.023652858	0.083816906	0.015049029	0.397819385	0.09907239
0.712	0.035482441	0.023397602	0.083481745	0.015159978	0.397705385	0.101172212
0.713	0.035424161	0.023145422	0.083150961	0.015279012	0.397559014	0.1032483
0.714	0.035362749	0.02289646	0.082824964	0.015405756	0.397381706	0.105299625
0.715	0.035298331	0.022650849	0.082504152	0.015539834	0.397174897	0.107325176
0.716	0.035231036	0.022408718	0.082188918	0.015680873	0.396940022	0.109323962
0.717	0.035160999	0.022170186	0.081879647	0.015828499	0.396678513	0.111295008
0.718	0.035088356	0.021935367	0.08157671	0.015982342	0.396391795	0.113237363
0.719	0.035013247	0.021704367	0.081280472	0.01614203	0.396081287	0.115150096
0.72	0.034935815	0.021477284	0.080991284	0.016307195	0.395748394	0.117032296
0.721	0.034856209	0.02125421	0.080709486	0.01647747	0.395394511	0.118883077
0.722	0.034774576	0.02103523	0.080435406	0.01665249	0.395021015	0.120701576
0.723	0.03469107	0.020820421	0.080169357	0.016831892	0.394629266	0.122486957
0.724	0.034605845	0.020609851	0.07991164	0.017015315	0.394220604	0.124238408
0.725	0.034519059	0.020403584	0.079662541	0.0172024	0.393796343	0.125955144
0.726	0.034430872	0.020201674	0.07942233	0.017392792	0.393357773	0.12763641
0.727	0.034341444	0.02000417	0.079191263	0.017586136	0.392906155	0.129281477
0.728	0.03425094	0.019811112	0.078969578	0.017782083	0.39244272	0.13088965
0.729	0.034159524	0.019622533	0.078757496	0.017980283	0.391968665	0.132460262
0.73	0.034067364	0.01943846	0.078555224	0.018180392	0.391485149	0.133992681
0.731	0.033974628	0.019258914	0.078362946	0.018382069	0.390993297	0.135486306
0.732	0.033881485	0.019083906	0.078180833	0.018584973	0.390494189	0.136940571
0.733	0.033788104	0.018913444	0.078009034	0.01878877	0.389988864	0.138354946
0.734	0.033694657	0.018747527	0.077847679	0.018993128	0.389478318	0.139728936
0.735	0.033601315	0.018586148	0.077696882	0.019197718	0.388963495	0.141062082
0.736	0.033508248	0.018429296	0.077556733	0.019402216	0.388445295	0.142353965
0.737	0.033415628	0.018276952	0.077427304	0.019606301	0.387924562	0.143604201
0.738	0.033323627	0.01812909	0.077308647	0.019809655	0.38740209	0.144812447
0.739	0.033232415	0.017985682	0.077200792	0.020011966	0.386878617	0.145978398
0.74	0.033142162	0.017846691	0.077103751	0.020212925	0.386354826	0.14710179
0.741	0.033053037	0.017712076	0.077017511	0.020412228	0.38583134	0.148182397
0.742	0.032965208	0.017581793	0.076942043	0.020609574	0.385308726	0.149220037
0.743	0.032878842	0.01745579	0.076877292	0.020804669	0.384787487	0.150214564
0.744	0.032794104	0.017334013	0.076823186	0.020997221	0.384268068	0.151165876
0.745	0.032711156	0.017216402	0.076779628	0.021186944	0.383750851	0.152073911
0.746	0.032630161	0.017102894	0.076746503	0.021373558	0.383236153	0.152938647
0.747	0.032551277	0.016993422	0.076723674	0.021556785	0.382724231	0.153760106
0.748	0.032474661	0.016887914	0.076710982	0.021736356	0.382215274	0.154538346
0.749	0.032400467	0.016786297	0.076708249	0.021912004	0.381709411	0.155273472
0.75	0.032328846	0.016688494	0.076715276	0.022083469	0.381206703	0.155965624
0.751	0.032259946	0.016594424	0.076731842	0.022250497	0.380707148	0.156614988
0.752	0.032193912	0.016504004	0.076757709	0.022412837	0.38021068	0.157221786
0.753	0.032130886	0.01641715	0.076792618	0.022570248	0.379717168	0.157786284
0.754	0.032071005	0.016333774	0.076836289	0.022722491	0.379226418	0.158308788
0.755	0.032014404	0.016253788	0.076888427	0.022869335	0.378738171	0.15878964
0.756	0.031961213	0.0161771	0.076948716	0.023010554	0.378252107	0.159229228
0.757	0.031911557	0.016103619	0.077016823	0.023145929	0.377767845	0.159627974
0.758	0.03186556	0.016033252	0.077092398	0.023275247	0.377284941	0.159986342
0.759	0.031823337	0.015965904	0.077175074	0.023398303	0.376802891	0.160304836
0.76	0.031785003	0.015901481	0.077264471	0.023514896	0.376321135	0.160583995
0.761	0.031750666	0.015839887	0.077360189	0.023624834	0.375839052	0.1608244
0.762	0.031720429	0.015781028	0.077461819	0.02372793	0.375355968	0.161026666
0.763	0.031694391	0.015724808	0.077568933	0.023824004	0.374871152	0.161191448
0.764	0.031672645	0.015671131	0.077681095	0.023912886	0.374383823	0.161319437
0.765	0.03165528	0.015619902	0.077797854	0.023994411	0.373893146	0.161411359
0.766	0.031642379	0.015571029	0.07791875	0.024068419	0.37339824	0.161467978
0.767	0.031634021	0.015524416	0.078043312	0.024134763	0.372898173	0.161490091
0.768	0.031630278	0.015479972	0.078171059	0.024193299	0.372391973	0.161478531
0.769	0.031631216	0.015437605	0.078301504	0.024243892	0.371878623	0.161434163
0.77	0.031636898	0.015397225	0.07843415	0.024286415	0.371357064	0.161357887
